<?xml version="1.0" encoding="utf-8"?>
<svg viewBox="0 0 500 500" xmlns="http://www.w3.org/2000/svg">
  <g transform="matrix(18.231602, 0, 0, 17.891907, -7.15635, -18364.550781)" style="">
    <path d="m1 1035.4v1 1 2 1 1 1 1 2 1 2 1c0 1.1 0.8954 2 2 2h9 9c1.105 0 2-0.9 2-2v-1-2-4-2-3-1-1h-22z" fill="#bdc3c7"/>
    <path d="m3 2c-1.1046 0-2 0.8954-2 2v3h22v-3c0-1.1046-0.895-2-2-2h-9-9z" transform="translate(0 1028.4)" fill="#bdc3c7"/>
    <path d="m1 6v1 1 2 1 1 1 1 2 1 2 1c0 1.105 0.8954 2 2 2h9 9c1.105 0 2-0.895 2-2v-1-2-4-2-3-1-1h-22z" transform="translate(0 1028.4)" fill="#ecf0f1"/>
    <path d="m4 4a1 1 0 1 1 -2 0 1 1 0 1 1 2 0z" transform="translate(0 1028.4)" fill="#c0392b"/>
    <path d="m4 4a1 1 0 1 1 -2 0 1 1 0 1 1 2 0z" transform="translate(3 1028.4)" fill="#27ae60"/>
    <path d="m4 4a1 1 0 1 1 -2 0 1 1 0 1 1 2 0z" transform="translate(6 1028.4)" fill="#f39c12"/>
    <path d="m3 1036.4v1 10 1h1 2 2v-12h-2-2zm6 0v1 2h12v-2-1h-1-10zm0 4v8h1 10 1v-1-6-1h-1-10z" fill="#bdc3c7"/>
  </g>
  <g transform="matrix(12.582668, 0, 0, 12.582668, 177.063309, -12949.891602)" style="">
    <path d="M 6.785 1033.397 L 8.421 1043.401 C 8.421 1047.601 10.418 1051.397 15.785 1053.397 C 21.153 1051.397 24.785 1047.597 24.785 1043.397 L 24.785 1033.397 L 6.785 1033.397 Z" fill="#ecf0f1"/>
    <path d="M 6.785 1033.397 L 6.785 1043.397 C 6.785 1047.597 10.418 1051.397 15.785 1053.397 L 15.785 1033.397 L 6.785 1033.397 Z" fill="#bdc3c7"/>
    <path d="M 8.785 1035.397 L 8.785 1043.397 C 8.785 1046.797 11.611 1049.797 15.785 1051.397 C 19.96 1049.797 22.785 1046.797 22.785 1043.397 L 22.785 1035.397 L 8.785 1035.397 Z" fill="#c0392b"/>
    <path d="M 15.785 1035.397 L 15.785 1051.397 C 19.96 1049.797 22.785 1046.797 22.785 1043.397 L 22.785 1035.397 L 15.785 1035.397 Z" fill="#e74c3c"/>
    <path d="M 12.942 1039.497 L 11.535 1040.897 L 14.379 1043.797 L 11.535 1046.597 L 12.942 1047.997 L 15.785 1045.197 L 18.629 1047.997 L 20.035 1046.597 L 17.191 1043.797 L 20.035 1040.997 L 18.597 1039.497 L 15.785 1042.397 L 12.942 1039.497 Z" fill="#c0392b"/>
    <path d="M 12.942 1038.497 L 11.535 1039.897 L 14.379 1042.797 L 11.535 1045.597 L 12.942 1046.997 L 15.785 1044.197 L 18.629 1046.997 L 20.035 1045.597 L 17.191 1042.797 L 20.035 1039.997 L 18.597 1038.497 L 15.785 1041.397 L 12.942 1038.497 Z" fill="#ecf0f1"/>
  </g>
</svg>