<?xml version="1.0" encoding="utf-8"?>
<svg viewBox="0 0 500 500" xmlns="http://www.w3.org/2000/svg">
  <g style="" transform="matrix(1.263998, 0, 0, 1.263998, -51.662254, -93.499275)">
    <g transform="matrix(21.018135, 0, 0, -21.018135, -849.557678, 1949.077026)" id="g186" style="">
      <path d="m 56.105,79.364 c -0.018,2.008 1.64,2.972 1.715,3.019 -0.933,1.365 -2.385,1.552 -2.903,1.574 -1.235,0.125 -2.411,-0.727 -3.037,-0.727 -0.626,0 -1.594,0.709 -2.618,0.689 -1.348,-0.02 -2.589,-0.783 -3.283,-1.989 -1.399,-2.427 -0.357,-6.024 1.005,-7.994 0.667,-0.963 1.461,-2.048 2.505,-2.008 1.006,0.04 1.386,0.65 2.6,0.65 1.214,0 1.556,-0.65 2.619,-0.631 1.081,0.021 1.767,0.984 2.429,1.95 0.764,1.118 1.08,2.2 1.098,2.257 -0.024,0.01 -2.108,0.809 -2.13,3.21" id="path188" style="fill: rgb(41, 48, 50);"/>
    </g>
    <path d="M 284.747 159.465 C 296.39 145.361 304.251 125.751 302.086 106.205 C 285.312 106.878 265.01 117.387 252.966 131.49 C 242.184 143.955 232.726 163.921 235.289 183.069 C 253.996 184.519 273.101 173.547 284.747 159.465" id="path190" style="fill: rgb(41, 48, 50);"/>
  </g>
</svg>