<?xml version="1.0" encoding="utf-8"?>
<svg viewBox="0 0 500 500" xmlns="http://www.w3.org/2000/svg">
  <path stroke="rgb(255,0,0)" stroke-width="0" d="M 89.309 237.111 C 93.927 236.876 101.545 238.951 108.038 241.997 C 115.698 245.59 127.164 253.518 132.061 258.691 C 135.452 262.272 135.205 266.407 137.762 268.87 C 140.167 271.186 144.014 270.679 146.719 273.349 C 150.158 276.741 151.155 284.67 155.677 289.228 C 160.779 294.371 173.062 297.874 176.85 301.85 C 179.267 304.388 179.424 305.449 180.107 309.179 C 181.267 315.512 179.358 329.812 180.107 339.309 C 180.808 348.203 185.079 358.758 184.178 364.554 C 183.572 368.454 180.404 367.677 179.293 372.697 C 176.903 383.488 178.552 421.579 179.293 437.029 C 179.782 447.256 183.042 454.056 181.735 459.831 C 180.717 464.333 177.918 467.911 174.814 470.01 C 171.776 472.063 167.167 472.825 163.413 472.453 C 159.565 472.071 158.073 469.038 152.012 467.567 C 140.892 464.867 107.051 464.161 95.823 461.052 C 89.532 459.31 86.671 457.781 84.016 454.945 C 81.591 452.355 80.799 450.121 79.944 445.173 C 78.491 436.76 79.168 419.904 79.944 405.27 C 80.619 392.541 83.294 374.581 84.743 361.034 C 83.379 360.03 82.053 358.824 80.717 357.521 C 77.137 354.031 73.632 346.362 70.538 343.27 C 68.353 341.086 67.07 341.825 64.43 339.198 C 59.489 334.281 47.33 319.681 43.258 311.104 C 40.064 304.376 38.393 297.305 39.186 292.374 C 39.763 288.786 41.738 286.109 44.409 283.757 C 38.821 269.846 33.815 242.79 31.561 223.226 C 28.913 200.232 29.605 174.613 31.561 152.379 C 33.387 131.633 38.001 105.534 42.148 93.747 C 44.523 86.993 47.033 83.939 49.884 81.125 C 52.154 78.883 54.28 77.783 57.213 77.053 C 60.622 76.205 65.7 75.905 69.428 77.053 C 73.167 78.205 76.97 80.04 79.607 83.975 C 83.123 89.223 85.578 105.148 86.121 108.405 C 86.303 109.493 86.176 108.736 86.121 110.034 C 85.903 115.195 82.795 145.016 82.864 161.337 C 82.929 176.685 86.924 197.496 86.121 205.31 C 85.738 209.044 83.812 208.011 83.678 211.825 C 83.513 216.551 84.53 226.886 86.496 237.602 C 87.335 237.335 88.259 237.164 89.309 237.111 Z M 396.757 235.244 C 400.852 234.007 402.858 234.421 405.715 235.244 C 405.826 235.276 405.939 235.31 406.052 235.345 C 407.593 233.084 409.44 231.126 410.906 229.896 C 412.523 228.54 413.954 227.754 415.773 227.52 C 414.04 215.625 412.972 201.822 412.204 192.542 C 411.062 178.734 411.7 169.963 412.204 155.897 C 412.817 138.812 413.4 108.103 416.276 96.451 C 417.854 90.056 419.484 87.44 422.383 84.643 C 425.135 81.989 429.37 80.556 432.97 79.757 C 436.433 78.989 440.168 78.807 443.556 79.757 C 447.103 80.752 451.092 83.093 453.735 85.864 C 456.392 88.65 458.386 92.041 459.436 96.451 C 460.731 101.894 459.625 108.758 459.436 116.809 C 459.196 126.998 457.819 136.356 457.807 153.454 C 457.793 174.156 462.275 222.266 462.864 252.089 C 464.224 259.85 465.228 269.079 465.852 276.275 C 466.914 288.534 467.326 305.331 465.852 312.92 C 464.994 317.337 464.327 319.401 461.78 321.471 C 458.733 323.945 451.711 326.177 447.529 325.542 C 447.193 325.491 446.858 325.438 446.525 325.381 C 441.083 332.547 434.195 340.233 430.145 344.364 C 426.626 347.954 424.175 348.491 421.595 351.286 C 418.846 354.262 415.658 357.044 414.266 361.872 C 412.419 368.274 415.22 379.369 414.266 387.931 C 413.314 396.469 409.47 405.256 408.565 413.175 C 407.743 420.37 407.39 427.697 408.565 433.533 C 409.583 438.589 414.304 442.185 414.266 446.563 C 414.227 451.006 411.597 457.215 408.158 459.999 C 404.695 462.803 398.386 463.257 393.5 463.257 C 388.614 463.257 385.56 460.518 378.842 459.999 C 368.514 459.202 345.807 464.193 334.868 461.628 C 326.674 459.707 319.665 455.183 316.546 450.634 C 313.979 446.89 314.528 441.915 314.917 437.605 C 315.312 433.228 318.06 431.343 318.989 424.576 C 320.68 412.254 319.967 382.996 319.803 363.501 C 319.648 345.087 315.714 320.792 318.174 310.569 C 319.547 304.867 322.475 302.276 325.096 300.39 C 327.201 298.876 328.951 301.16 332.018 298.761 C 339.034 293.274 353.136 263.961 364.998 253.159 C 374.971 244.078 389.579 237.412 396.757 235.244 Z" style="stroke: rgb(129, 151, 57); stroke-width: 2px; fill: rgb(255, 231, 55);"/>
  <g/>
  <g id="Layer_1" transform="matrix(8.342492, 0, 0, 8.342492, 51.682281, 45.408714)" style="">
    <path d="M 46.088 2.208 C 43.627 2.208 41.625 4.21 41.625 6.671 L 41.625 21.181 C 40.556 21.228 39.557 21.667 38.796 22.428 L 30.467 30.757 L 30.467 51.303 L 44.972 51.303 L 44.972 38.376 L 50.551 32.797 L 50.551 6.671 C 50.551 4.21 48.549 2.208 46.088 2.208 Z M 48.32 31.873 L 42.741 37.452 L 42.741 49.072 L 32.698 49.072 L 32.698 31.681 L 40.374 24.005 C 40.753 23.626 41.279 23.408 41.817 23.408 C 42.941 23.408 43.856 24.323 43.856 25.448 C 43.856 25.985 43.639 26.511 43.259 26.891 L 38.604 31.546 L 40.182 33.124 L 44.837 28.468 C 45.644 27.662 46.088 26.589 46.088 25.448 C 46.088 23.831 45.184 22.421 43.856 21.697 L 43.856 6.671 C 43.856 5.441 44.857 4.44 46.088 4.44 C 47.319 4.44 48.32 5.441 48.32 6.671 L 48.32 31.873 Z" style="fill: rgb(41, 48, 50);"/>
    <path d="M 5.919 21.181 L 5.919 6.671 C 5.919 4.21 3.918 2.208 1.456 2.208 C -1.005 2.208 -3.007 4.21 -3.007 6.671 L -3.007 32.797 L 2.572 38.376 L 2.572 51.303 L 17.077 51.303 L 17.077 30.757 L 8.748 22.428 C 7.987 21.665 6.988 21.228 5.919 21.181 Z M 14.846 49.072 L 4.804 49.072 L 4.804 37.452 L -0.775 31.873 L -0.775 6.671 C -0.775 5.441 0.225 4.44 1.456 4.44 C 2.687 4.44 3.688 5.441 3.688 6.671 L 3.688 21.697 C 2.36 22.421 1.456 23.831 1.456 25.448 C 1.456 26.588 1.9 27.662 2.707 28.468 L 7.362 33.124 L 8.94 31.546 L 4.285 26.891 C 3.905 26.511 3.688 25.986 3.688 25.448 C 3.688 24.323 4.603 23.408 5.727 23.408 C 6.264 23.408 6.791 23.626 7.17 24.005 L 14.846 31.681 L 14.846 49.072 Z" style="fill: rgb(41, 48, 50);"/>
    <path d="M 18.193 1.092 C 18.193 -0.753 16.691 -2.255 14.846 -2.255 C 13 -2.255 11.498 -0.753 11.498 1.092 C 11.498 2.545 12.434 3.773 13.73 4.234 L 13.73 7.133 L 18.193 11.596 L 18.193 14.482 L 20.425 14.482 L 20.425 10.673 L 15.962 6.209 L 15.962 4.234 C 17.257 3.773 18.193 2.545 18.193 1.092 Z M 14.846 -0.023 C 15.462 -0.023 15.962 0.476 15.962 1.092 C 15.962 1.708 15.462 2.208 14.846 2.208 C 14.23 2.208 13.73 1.708 13.73 1.092 C 13.73 0.476 14.23 -0.023 14.846 -0.023 Z" style="fill: rgb(119, 150, 242);"/>
    <path d="M 24.888 14.482 L 24.888 4.234 C 26.183 3.773 27.119 2.545 27.119 1.092 C 27.119 -0.753 25.618 -2.255 23.772 -2.255 C 21.927 -2.255 20.425 -0.753 20.425 1.092 C 20.425 2.545 21.361 3.773 22.656 4.234 L 22.656 14.482 L 24.888 14.482 Z M 23.772 -0.023 C 24.388 -0.023 24.888 0.476 24.888 1.092 C 24.888 1.708 24.388 2.208 23.772 2.208 C 23.156 2.208 22.656 1.708 22.656 1.092 C 22.656 0.476 23.156 -0.023 23.772 -0.023 Z" style="fill: rgb(119, 150, 242);"/>
    <path d="M 33.814 4.234 C 35.11 3.773 36.046 2.545 36.046 1.092 C 36.046 -0.753 34.544 -2.255 32.698 -2.255 C 30.853 -2.255 29.351 -0.753 29.351 1.092 C 29.351 2.545 30.287 3.773 31.583 4.234 L 31.583 6.209 L 27.119 10.673 L 27.119 14.482 L 29.351 14.482 L 29.351 11.596 L 33.814 7.133 L 33.814 4.234 Z M 32.698 -0.023 C 33.314 -0.023 33.814 0.476 33.814 1.092 C 33.814 1.708 33.314 2.208 32.698 2.208 C 32.083 2.208 31.583 1.708 31.583 1.092 C 31.583 0.476 32.083 -0.023 32.698 -0.023 Z" style="fill: rgb(119, 150, 242);"/>
    <polygon points="33.814 12.25 31.583 12.25 31.583 16.714 15.962 16.714 15.962 12.25 13.73 12.25 13.73 18.945 33.814 18.945" style="fill: rgb(41, 48, 50);"/>
  </g>
  <g transform="matrix(8.342492, 0, 0, 8.342492, 50.514854, 44.39397)" style=""/>
</svg>