<?xml version="1.0" encoding="utf-8"?>
<svg viewBox="0 0 500 500" xmlns="http://www.w3.org/2000/svg">
  <g transform="matrix(10.320872, 0, 0, 10.320872, 2.299065, 7.459501)" style="">
    <path d="M47,11V6c0-1.105-0.895-2-2-2H3C1.895,4,1,4.895,1,6v5H47z" style="fill: rgb(60, 58, 58);"/>
    <path d="M45,43H15V11h32v30C47,42.105,46.105,43,45,43z" style="fill: rgb(109, 109, 109);"/>
    <circle fill="#E86C60" cx="4.5" cy="7.5" r="1.5"/>
    <circle fill="#EFD358" cx="9.5" cy="7.5" r="1.5"/>
    <circle fill="#72C472" cx="14.5" cy="7.5" r="1.5"/>
    <path d="M16,43H3c-1.105,0-2-0.895-2-2V11h15V43z" style="fill: rgb(87, 87, 87);"/>
    <rect x="5" y="14" fill="#B3B3B3" width="7" height="2"/>
    <rect x="5" y="20" fill="#B3B3B3" width="5" height="2"/>
    <rect x="5" y="26" fill="#B3B3B3" width="7" height="2"/>
    <rect x="5" y="32" fill="#B3B3B3" width="5" height="2"/>
    <rect x="5" y="38" fill="#B3B3B3" width="7" height="2"/>
    <rect x="20" y="14" width="5" height="2" style="fill: rgb(96, 200, 232);"/>
    <rect x="24" y="20" width="7" height="2" style="fill: rgb(88, 239, 118);"/>
    <rect x="27" y="26" fill="#FFFFFF" width="10" height="2"/>
    <rect x="24" y="32" width="7" height="2" style="fill: rgb(88, 239, 118);"/>
    <rect x="20" y="38" width="5" height="2" style="fill: rgb(96, 200, 232);"/>
  </g>
</svg>