<?xml version="1.0" encoding="utf-8"?>
<svg viewBox="0 0 500 500" xmlns="http://www.w3.org/2000/svg">
  <path style="fill: rgb(217, 222, 228);" d="M 405.152 442.601 C 405.152 467.018 385.358 486.811 360.942 486.811 L 347.99 486.811 L 112.095 486.811 C 102.574 486.811 94.848 479.087 94.848 469.566 L 94.848 30.437 C 94.848 20.915 102.574 13.189 112.095 13.189 L 387.897 13.189 C 397.427 13.189 405.152 20.915 405.152 30.437 L 405.152 429.65 L 405.152 442.601 Z"/>
  <circle style="fill: rgb(228, 48, 48);" cx="319.41" cy="346.905" r="20.415"/>
  <circle style="fill: rgb(228, 48, 48);" cx="270.415" cy="395.9" r="20.415"/>
  <path style="fill: rgb(88, 187, 215);" d="M 364.323 234.452 C 364.323 261.081 341.956 282.664 315.326 282.664 L 290.829 282.664 L 135.676 282.664 L 135.676 54.019 L 364.323 54.019 L 364.323 201.006 L 364.323 234.452 Z"/>
  <rect x="289.743" y="429.666" transform="matrix(0.707107, 0.707107, -0.707107, 0.707107, 411.874908, -73.657623)" style="fill: rgb(175, 182, 187);" width="28.874" height="16.333"/>
  <rect x="314.24" y="405.17" transform="matrix(0.707107, 0.707107, -0.707107, 0.707107, 401.727814, -98.155312)" style="fill: rgb(175, 182, 187);" width="28.874" height="16.333"/>
  <rect x="338.738" y="380.67" transform="matrix(0.707107, 0.707107, -0.707107, 0.707107, 391.581024, -122.653023)" style="fill: rgb(175, 182, 187);" width="28.874" height="16.333"/>
  <g transform="matrix(8.1659, 0, 0, 8.1659, 13.188663, 13.191316)" style="">
    <path style="fill: rgb(79, 211, 202);" d="M19,14c0.256,0,0.512-0.098,0.707-0.293l4-4c0.391-0.391,0.391-1.023,0-1.414s-1.023-0.391-1.414,0 l-4,4c-0.391,0.391-0.391,1.023,0,1.414C18.488,13.902,18.744,14,19,14z"/>
    <path style="fill: rgb(79, 211, 202);" d="M20.293,15.293l-2,2c-0.391,0.391-0.391,1.023,0,1.414C18.488,18.902,18.744,19,19,19 s0.512-0.098,0.707-0.293l2-2c0.391-0.391,0.391-1.023,0-1.414S20.684,14.902,20.293,15.293z"/>
    <path style="fill: rgb(79, 211, 202);" d="M22.29,13.29C22.11,13.479,22,13.729,22,14c0,0.26,0.11,0.52,0.29,0.71C22.48,14.89,22.74,15,23,15 c0.26,0,0.52-0.11,0.71-0.29C23.89,14.52,24,14.26,24,14s-0.11-0.521-0.29-0.71C23.34,12.92,22.66,12.92,22.29,13.29z"/>
    <path style="fill: rgb(79, 211, 202);" d="M28.707,8.293c-0.391-0.391-1.023-0.391-1.414,0l-3,3c-0.391,0.391-0.391,1.023,0,1.414 C24.488,12.902,24.744,13,25,13s0.512-0.098,0.707-0.293l3-3C29.098,9.316,29.098,8.684,28.707,8.293z"/>
  </g>
  <path style="fill: rgb(40, 50, 56);" d="M 219.671 347.991 L 192.838 347.991 L 192.838 321.159 C 192.838 317.94 190.226 315.328 187.009 315.328 L 166.014 315.328 C 162.789 315.328 160.176 317.94 160.176 321.159 L 160.176 347.991 L 133.342 347.991 C 130.124 347.991 127.511 350.605 127.511 353.822 L 127.511 374.816 C 127.511 378.041 130.124 380.655 133.342 380.655 L 160.176 380.655 L 160.176 407.488 C 160.176 410.705 162.789 413.32 166.005 413.32 L 187.001 413.32 C 190.226 413.32 192.838 410.705 192.838 407.488 L 192.838 380.655 L 219.671 380.655 C 222.888 380.655 225.502 378.041 225.502 374.825 L 225.502 353.83 C 225.502 350.605 222.888 347.991 219.671 347.991 Z"/>
  <g transform="matrix(7.553061, 0, 0, 7.553061, 44.0919, 31.50659)" style=""/>
  <g transform="matrix(7.553061, 0, 0, 7.553061, 44.0919, 31.50659)" style=""/>
  <g transform="matrix(7.553061, 0, 0, 7.553061, 44.0919, 31.50659)" style=""/>
  <g transform="matrix(7.553061, 0, 0, 7.553061, 44.0919, 31.50659)" style=""/>
  <g transform="matrix(7.553061, 0, 0, 7.553061, 44.0919, 31.50659)" style=""/>
  <g transform="matrix(7.553061, 0, 0, 7.553061, 44.0919, 31.50659)" style=""/>
  <g transform="matrix(7.553061, 0, 0, 7.553061, 44.0919, 31.50659)" style=""/>
  <g transform="matrix(7.553061, 0, 0, 7.553061, 44.0919, 31.50659)" style=""/>
  <g transform="matrix(7.553061, 0, 0, 7.553061, 44.0919, 31.50659)" style=""/>
  <g transform="matrix(7.553061, 0, 0, 7.553061, 44.0919, 31.50659)" style=""/>
  <g transform="matrix(7.553061, 0, 0, 7.553061, 44.0919, 31.50659)" style=""/>
  <g transform="matrix(7.553061, 0, 0, 7.553061, 44.0919, 31.50659)" style=""/>
  <g transform="matrix(7.553061, 0, 0, 7.553061, 44.0919, 31.50659)" style=""/>
  <g transform="matrix(7.553061, 0, 0, 7.553061, 44.0919, 31.50659)" style=""/>
  <g transform="matrix(7.553061, 0, 0, 7.553061, 44.0919, 31.50659)" style=""/>
</svg>