<?xml version="1.0" encoding="utf-8"?>
<svg viewBox="0 0 500 500" xmlns="http://www.w3.org/2000/svg">
  <path stroke="rgb(255,0,0)" stroke-width="0" d="M 225.498 68.25 C 229.994 70.143 233.201 72.338 235.184 75.896 C 237.353 79.788 238.383 86.649 237.224 91.191 C 236.091 95.63 231.75 100.361 228.558 102.916 C 225.881 105.056 222.29 104.743 219.891 106.484 C 217.561 108.172 216.509 111.408 214.283 113.112 C 212.082 114.796 209.271 114.51 206.636 116.68 C 203.056 119.628 197.676 125.113 195.42 130.955 C 192.916 137.436 192.491 148.084 193.381 154.406 C 194.088 159.429 197.54 161.677 198.479 166.641 C 199.033 169.569 199.353 173.529 199.395 177.484 C 202.203 180.871 201.174 185.878 205.514 187.637 C 212.786 190.587 233.75 187.167 245.276 183.56 C 255.694 180.297 268.824 173.391 272.295 168.265 C 274.476 165.047 271.313 161.693 272.295 158.579 C 273.358 155.216 275.964 151.184 278.922 148.892 C 281.901 146.585 285.822 144.539 290.138 144.815 C 295.524 145.157 305.14 150.012 309.001 153.481 C 311.861 156.052 309.994 157.835 313.589 162.148 C 321.765 171.953 358.989 201.594 370.176 213.637 C 376.676 220.634 379.885 227.028 381.901 229.44 C 382.735 230.438 382.605 230.206 383.431 230.97 C 385.004 232.427 390.036 236.325 391.588 238.106 C 392.513 239.168 392.57 239.952 393.118 240.656 C 393.598 241.276 393.448 241.24 394.646 242.186 C 398.478 245.209 421.614 256.864 427.274 264.617 C 431.386 270.248 432.654 275.593 431.351 281.95 C 429.697 290.023 420.582 302.323 413.508 308.968 C 407.121 314.972 396.796 315.57 391.588 321.203 C 386.616 326.583 386.768 336.509 382.411 341.595 C 378.409 346.269 371.072 347.765 367.117 351.281 C 363.725 354.299 363.029 358.984 359.471 360.967 C 355.58 363.135 348.251 363.446 344.178 363.007 C 341.008 362.666 337.588 358.523 336.529 359.948 C 334.862 362.195 343.574 378.475 342.648 384.927 C 341.921 389.987 338.772 394.173 335.001 396.654 C 330.963 399.309 323.447 400.776 318.686 399.712 C 314.169 398.702 310.984 395.093 306.962 391.046 C 301.877 385.93 298.075 376.279 291.158 370.143 C 283.496 363.348 267.559 359.441 262.1 352.811 C 257.898 347.709 256.486 341.805 257.002 335.987 C 257.08 335.096 257.225 334.139 257.43 333.14 C 243.243 322.959 230.28 312.871 227.243 310.084 C 225.57 308.55 226.704 308.686 225.712 307.534 C 223.848 305.371 218.785 302.229 215.007 297.849 C 210.094 292.151 205.66 281.366 199.204 274.909 C 192.746 268.45 183.723 266.43 176.263 259.103 C 167.329 250.33 155.631 230.323 150.263 223.929 C 147.552 220.7 146.408 220.395 144.656 218.321 C 144.632 218.293 144.61 218.266 144.585 218.238 C 142.175 218.658 139.535 218.672 136.694 218.245 C 132.868 217.669 127.291 215.908 121.8 213.544 C 121.029 215.73 119.79 217.85 117.541 220.065 C 112.614 224.915 97.171 230.743 92.052 234.849 C 88.912 237.368 88.139 239.888 86.443 241.476 C 85.153 242.686 84.258 242.482 82.876 244.025 C 80.539 246.633 77.837 255.028 74.208 257.791 C 71.036 260.206 66.909 261.248 62.993 260.849 C 58.626 260.405 53.556 258.829 49.229 254.222 C 42.89 247.472 35.329 231.566 31.895 218.536 C 28.284 204.836 27.701 187.18 28.837 173.674 C 29.847 161.65 33.139 151.665 36.994 141.047 C 40.915 130.244 46.937 117.926 52.287 109.439 C 56.703 102.435 63.826 96.403 66.051 92.617 C 67.271 90.541 66.69 89.983 67.582 88.028 C 68.924 85.084 69.823 80.292 74.208 76.303 C 81.088 70.046 99.658 61.413 110.914 56.93 C 120.454 53.131 128.043 50.86 137.422 49.794 C 147.349 48.665 158.163 49.394 169.03 50.813 C 180.552 52.318 196.986 55.784 204.715 58.97 C 209.476 60.931 212.1 62.076 214.209 65.296 C 218.521 66.044 222.745 67.09 225.498 68.25 Z" style="stroke: rgb(129, 151, 57); stroke-width: 2px; fill: rgba(255, 231, 76, 0.82);"/>
  <path stroke="rgb(255,0,0)" stroke-width="0" d="M 444.288 256.787 C 440.274 259.144 435.926 261.354 428.994 258.826 C 415.777 254.005 374.905 214.276 369.349 209.375 C 368.02 208.204 368.928 208.846 367.819 207.846 C 364.425 204.787 349.038 193.598 340.8 184.906 C 332.344 175.983 326.18 163.78 317.859 154.827 C 310.079 146.458 296.885 139.472 292.286 132.57 C 291.963 132.819 291.665 133.096 291.4 133.413 C 289.263 135.965 290.559 139.467 287.323 143.098 C 281.839 149.25 261.637 158.606 254.697 165.019 C 250.028 169.333 249.682 173.771 246.03 176.744 C 242.374 179.72 237.483 181.833 232.774 182.862 C 227.978 183.91 222.016 184.349 217.481 182.862 C 213.031 181.404 208.405 178.681 205.756 174.195 C 202.532 168.74 200.601 159.072 201.676 150.745 C 202.907 141.218 209.731 128.217 214.933 120.156 C 219.307 113.376 223.558 109.643 229.716 104.354 C 237.002 98.095 250.914 91.521 256.734 85.491 C 260.968 81.106 259.989 76.872 264.382 72.747 C 270.417 67.078 283.798 60.409 292.931 56.433 C 301.05 52.898 306.963 50.616 316.382 49.295 C 328.153 47.643 348.928 48.085 359.204 49.295 C 366.105 50.108 367.514 50.549 374.499 53.374 C 386.197 58.103 413.32 71.432 425.477 79.883 C 434.325 86.035 438.457 90.927 444.34 97.726 C 450.571 104.928 457.558 113.875 461.673 122.196 C 465.468 129.873 467.174 134.248 468.809 145.647 C 471.51 164.449 474.326 215.707 470.849 231.293 C 469.06 239.311 465.926 242.286 462.183 245.058 C 459.297 247.194 455.489 248.391 451.818 248.285 C 450.171 251.749 447.285 255.026 444.288 256.787 Z M 167.497 272.825 C 173.788 270.828 179.523 271.096 184.83 272.825 C 190.248 274.59 195.174 278.696 199.613 283.53 C 204.664 289.029 210.681 298.533 212.869 304.942 C 214.588 309.981 211.297 316.035 213.888 318.706 C 216.631 321.537 225.159 318.99 229.692 320.746 C 233.892 322.371 236.666 324.587 240.398 328.393 C 245.375 333.468 249.097 344.131 256.202 350.313 C 264.01 357.11 279.197 360.71 286.28 366.628 C 291.822 371.261 295.325 376.308 297.495 381.411 C 299.456 386.026 299.981 390.871 299.534 395.685 C 299.067 400.722 296.991 406.581 294.435 410.979 C 291.992 415.187 287.824 418.663 284.75 421.684 C 282.084 424.307 279.225 426.142 277.103 428.313 C 275.246 430.211 275.112 431.629 272.514 433.919 C 268.109 437.806 257.756 446.786 250.083 449.213 C 243.108 451.423 234.45 450.852 228.672 449.213 C 223.797 447.831 219.6 445.803 216.948 441.567 C 213.667 436.33 212.47 425.076 212.869 418.117 C 213.218 412.021 218.546 402.923 217.966 401.803 C 217.679 401.248 217.004 402.791 215.418 403.334 C 211.901 404.535 200.571 408.712 194.007 407.411 C 187.496 406.121 178.772 397.713 176.164 395.685 C 175.12 394.874 175.447 394.906 174.633 394.157 C 173.127 392.768 168.889 390.74 166.988 387.528 C 164.656 383.594 162.867 375.198 162.909 371.215 C 162.937 368.501 164.929 367.19 164.948 365.098 C 164.968 362.944 165.04 359.893 162.909 358.47 C 159.657 356.302 149.708 359.666 143.026 357.452 C 135.448 354.938 124.277 348.896 120.087 342.668 C 116.413 337.208 115.868 329.842 117.027 323.295 C 117.456 320.873 118.511 318.087 119.862 315.294 C 115.262 315.812 110.406 315.689 106.082 315.05 C 97.329 313.759 85.586 308.897 80.083 303.835 C 75.659 299.764 74.133 294.242 72.945 289.051 C 71.761 283.873 71.055 278.933 72.945 272.738 C 75.484 264.417 85.219 249.539 90.789 243.679 C 94.527 239.746 98.077 239.905 101.495 237.051 C 105.244 233.919 108.433 227.983 112.2 225.327 C 115.449 223.034 118.509 221.697 122.397 221.248 C 126.851 220.733 133.044 221.366 137.69 223.287 C 142.404 225.236 146.732 228.769 150.435 232.974 C 154.49 237.579 158.871 244.974 160.63 250.307 C 162.076 254.684 162.61 258.532 161.65 262.542 C 160.614 266.871 156.414 272.822 154.004 275.286 C 152.413 276.911 150.68 275.961 149.415 277.835 C 148.472 279.232 148.112 281.827 147.737 284.756 C 153.912 280.062 161.958 274.584 167.497 272.825 Z" style="stroke: rgb(129, 151, 57); stroke-width: 2px; fill: rgb(161, 184, 242);"/>
  <path d="M 410.728 53.448 C 360.77 26.403 310.438 29.909 263.235 61.335 C 252.844 68.346 247.084 68.096 237.068 61.21 C 178.346 20.644 101.22 29.659 52.64 81.618 C 5.437 132.076 2.432 210.455 45.753 265.545 C 51.888 273.308 56.521 280.821 58.023 291.087 C 60.527 309.117 72.922 320.26 90.201 323.266 C 99.842 325.018 102.722 328.274 104.349 337.288 C 107.48 354.942 118.999 366.837 136.403 369.842 C 147.044 371.72 149.549 376.603 151.427 385.744 C 154.933 402.646 166.577 413.539 182.979 416.544 C 193.245 418.422 195.875 422.679 198.129 431.944 C 206.268 464.748 243.329 475.39 268.62 452.603 C 277.759 444.339 286.274 435.324 294.913 426.561 C 299.546 421.928 303.802 418.172 311.314 417.545 C 332.725 415.667 345.872 403.272 349.753 382.487 C 351.255 374.724 353.759 371.97 361.522 370.593 C 380.803 367.338 393.075 355.193 396.204 335.911 C 397.707 326.646 401.964 324.893 409.977 323.642 C 423.624 321.513 436.52 313.5 439.025 300.602 C 443.281 279.193 457.055 264.043 467.196 246.514 C 479.09 225.855 484.974 203.443 484.85 179.279 C 483.723 123.563 459.933 80.116 410.728 53.448 Z M 99.09 304.985 C 89.701 304.985 82.939 300.352 78.807 292.215 C 74.551 283.951 74.675 275.311 80.936 268.426 C 92.329 256.03 104.349 244.135 116.745 232.616 C 123.631 226.231 132.145 226.357 140.409 230.487 C 148.672 234.745 152.929 241.507 152.929 250.772 C 152.804 265.545 113.739 304.86 99.09 304.985 Z M 161.694 344.927 C 150.926 354.692 139.157 354.692 129.14 344.05 C 120 334.158 120.251 322.89 129.516 312.874 C 140.033 301.605 151.051 290.711 162.444 280.194 C 169.707 273.559 178.471 272.432 187.485 277.439 C 195.624 281.822 199.757 288.584 199.381 297.849 C 199.505 303.984 197.502 309.242 193.245 313.5 C 182.729 324.017 172.587 334.91 161.694 344.927 Z M 206.767 392.755 C 197.252 401.393 186.109 400.768 177.094 392.128 C 167.579 382.989 165.825 371.344 174.966 361.078 C 185.607 349.057 197.502 338.039 209.146 326.896 C 216.533 319.884 225.423 319.385 234.187 324.141 C 242.076 328.398 246.458 335.286 246.333 344.676 C 246.207 350.059 244.831 354.942 241.074 358.824 C 229.681 370.218 218.662 381.987 206.767 392.755 Z M 239.822 444.965 C 230.681 444.965 223.671 441.084 219.038 433.196 C 213.905 424.432 214.53 415.291 221.166 408.03 C 232.435 395.634 244.579 383.989 256.851 372.596 C 263.736 366.211 272.251 366.337 280.39 370.593 C 288.527 374.724 293.035 381.487 292.909 390.752 C 292.784 405.025 254.22 444.465 239.822 444.965 Z M 416.737 298.35 C 405.344 309.368 393.075 306.487 382.306 295.97 C 356.014 269.928 329.97 243.635 303.677 217.592 C 298.042 211.957 291.783 201.941 283.018 210.33 C 274.129 218.72 283.519 225.354 289.279 231.114 C 314.444 256.405 339.862 281.572 365.028 306.989 C 379.927 322.013 381.805 335.535 369.786 345.552 C 355.638 357.321 343.868 351.311 332.475 339.667 C 307.058 313.625 281.14 288.208 255.348 262.541 C 249.838 257.157 243.953 249.144 236.066 257.283 C 228.303 265.17 236.066 271.555 241.325 276.94 C 267.367 303.233 293.661 329.276 319.953 355.318 C 331.096 366.337 335.354 377.855 324.085 391.127 C 322.207 393.255 318.702 395.259 315.947 395.259 C 311.565 395.133 312.692 390.626 312.316 387.622 C 309.937 366.086 297.793 353.315 276.883 349.308 C 269.245 347.806 266.116 345.302 264.988 337.413 C 262.109 317.881 249.587 306.363 230.557 302.606 C 223.295 301.104 219.539 299.476 218.411 291.213 C 215.657 271.68 203.262 259.536 184.231 256.155 C 175.342 254.528 173.338 250.772 171.335 242.883 C 162.444 207.324 125.885 197.183 98.84 222.225 C 89.825 230.613 80.811 239.127 72.798 248.392 C 65.285 257.031 61.153 254.528 55.518 246.263 C 42.498 227.483 34.485 202.066 34.735 168.511 C 36.864 130.072 57.146 94.139 97.84 71.476 C 137.905 49.19 178.471 51.068 218.537 72.979 C 232.309 80.492 237.444 87.127 222.293 98.896 C 213.153 106.034 205.39 114.923 197.377 123.437 C 179.598 142.344 179.097 167.133 195.875 184.537 C 212.027 201.315 238.444 201.565 257.225 184.537 C 267.742 174.896 277.885 164.754 287.525 154.238 C 293.786 147.351 298.168 146.976 304.803 153.862 C 341.239 190.923 378.174 227.483 414.859 264.294 C 425.753 274.686 428.256 287.08 416.737 298.35 Z M 445.659 244.385 C 439.275 255.029 434.892 255.655 425.753 246.389 C 388.191 207.826 349.252 170.389 311.815 131.7 C 300.546 120.056 292.784 118.93 281.892 131.575 C 270.498 144.848 257.476 156.741 244.831 168.887 C 233.937 179.279 221.542 181.658 210.525 170.263 C 199.505 158.87 201.759 146.726 212.652 135.957 C 229.681 119.055 245.707 100.9 263.987 85.5 C 302.801 53.072 346.998 46.059 393.198 66.97 C 440.151 88.255 462.94 126.943 465.067 168.761 C 465.192 202.066 458.055 223.852 445.659 244.385 Z" style="fill: rgb(41, 48, 50);"/>
  <g/>
</svg>