<?xml version="1.0" encoding="utf-8"?>
<svg viewBox="0 0 500 500" xmlns="http://www.w3.org/2000/svg">
  <path d="M 192.326 411.005 C 208.213 409.321 210.303 391.965 202.838 384.392 C 196.665 378.151 162.681 352.104 153.813 341.864 C 149.703 337.107 144.111 334.775 141.752 329.439 C 136.324 317.148 132.508 299.604 139.409 287.005 C 140.662 284.728 141.457 285.751 140.5 290.495 C 135.083 317.365 152.035 339.33 155.769 328.064 C 158.341 320.29 155.956 306.37 157.332 295.319 C 159.769 275.78 177.005 238.225 184.578 236.069 C 172.908 213.74 198.269 196.262 197.973 176.642 C 197.757 163.907 208.807 192.326 219.91 198.351 C 232.307 205.088 245.93 185.672 265.281 175.82 C 270.754 173.031 277.773 169.837 277.302 167.465 C 275.025 155.998 251.901 181.6 231.231 182.463 C 221.796 182.854 218.294 180.55 214.655 176.912 C 203.645 165.916 215.774 175.093 232.146 172.034 C 239.423 170.685 241.874 169.418 249.597 166.198 C 257.318 162.977 266.144 158.208 274.89 155.756 C 280.954 154.059 280.467 149.327 278.097 147.912 C 276.722 147.104 274.714 147.172 273.111 150.029 C 269.364 156.724 251.726 160.593 246.227 162.332 C 239.167 164.555 231.351 166.643 220.96 166.213 C 205.196 165.552 208.873 158.086 197.582 151.401 C 194.28 149.448 195.169 144.301 199.562 139.761 C 201.867 137.388 208.188 136.042 211.314 130.625 C 213.549 127.868 216.11 125.394 218.939 123.252 C 220.045 122.471 220.139 102.595 210.249 102.176 C 201.852 101.827 199.468 108.552 199.818 115.249 C 200.169 121.932 203.606 127.457 205.897 127.431 C 210.303 127.39 206.179 132.417 203.767 133.224 C 200.102 134.45 195.075 118.322 195.655 110.585 C 196.262 102.502 200.316 88.216 210.208 88.486 C 219.13 88.742 225.57 100.277 225.248 120.155 C 225.192 123.522 239.693 118.551 244.529 123.833 C 247.992 127.604 232.671 88.594 266.777 85.913 C 275.766 87.677 284.389 90.765 287.975 112.096 C 286.653 114.319 290.211 129.196 284.673 130.96 C 277.895 133.118 273.716 130.651 277.638 123.994 C 280.307 117.31 277.692 100.305 264.002 101.329 C 250.297 102.352 252.116 127.444 255.875 127.942 C 259.621 128.44 269.082 135.368 275.685 136.702 C 297.352 141.054 281.438 153.883 284.242 169.405 C 287.421 186.924 298.606 182.302 308.659 228.737 C 310.761 231.568 319.09 234.237 327.201 269.918 C 334.505 302.003 324.155 325.342 341.714 323.43 C 345.662 322.998 351.442 321.853 353.949 312.758 C 360.526 288.999 350.662 260.674 340.716 241.566 C 334.922 230.421 329.451 222.836 326.568 220.221 C 337.981 227.189 352.562 249.423 355.929 265.929 C 360.35 287.611 363.49 296.788 356.821 319.709 C 360.675 321.703 370.282 325.908 370.282 330.651 C 360.282 322.162 329.654 320.653 328.872 340.948 C 323.644 341.054 319.709 341.485 316.339 345.623 C 304.024 360.701 315.45 390.994 314.211 407.233 C 313.107 421.529 309.265 435.691 307.095 450.056 C 299.778 449.774 300.493 444.234 302.836 436.447 C 304.913 429.602 308.254 421.018 308.485 412.771 C 308.672 405.318 307.89 400.669 306.059 399.511 C 304.253 398.353 301.396 400.696 297.46 407.246 C 289.052 421.22 270.833 427.379 253.828 429.573 C 236.821 431.77 221.002 430.032 212.634 420.344 C 209.777 417.029 205.034 421.247 204.469 422.123 C 203.712 423.308 207.231 425.585 209.898 430.626 C 213.78 437.981 217.47 449.14 208.281 454.235 C 208.389 428.347 200.451 426.825 192.339 411.005 Z M 186.262 410.33 C 192.353 420.223 213.833 461.942 176.183 467.36 C 163.596 469.164 143.316 459.787 123.683 454.827 C 106.03 450.381 88.108 447.739 78.084 444.815 C 72.032 443.064 69.511 440.826 68.986 438.213 C 67.599 431.3 76.318 421.583 76.762 413.389 C 77.206 405.198 73.863 400.925 71.129 394.256 C 68.394 387.544 67.68 382.532 69.874 379.647 C 71.573 377.412 75.037 376.482 80.683 377.048 C 87.826 377.775 96.449 376.266 101.086 373.342 C 108.887 368.423 112.553 358.357 109.035 346.216 C 109.035 358.088 105.262 362.589 95.816 368.018 C 86.909 373.139 73.151 369.004 66.831 374.662 C 59.217 381.48 69.54 399.079 68.704 411.988 C 68.044 421.921 58.017 433.104 62.492 443.049 C 66.991 453.074 87.988 454.167 109.858 458.884 C 140.972 465.621 159.098 477.304 173.46 477.842 C 194.43 478.651 197.649 456.431 230.557 456.133 C 240.164 455.608 249.555 455.311 258.934 455.191 C 269.566 455.056 280.172 455.136 291.073 455.406 C 312.984 455.945 305.452 467.764 319.668 475.295 C 331.661 481.656 353.222 479.149 358.37 474.07 C 365.35 467.198 384.094 450.649 398.444 443.184 C 416.34 433.886 458.37 417.85 427.861 398.297 C 420.76 393.743 403.943 388.918 402.529 355.609 C 396.168 361.443 396.896 392.49 414.657 398.649 C 434.506 405.521 446.903 417.056 410.008 430.086 C 385.589 438.711 381.44 441.366 362.103 457.98 C 342.536 474.797 313.509 468.114 318.577 432.714 C 321.219 414.267 322.753 399.025 318.307 382.99 C 316.125 375.174 315.046 365.121 316.529 358.061 C 319.412 344.371 326.595 340.247 333.643 353.398 C 338.048 361.659 339.612 371.306 355.431 372.089 C 380.28 373.327 385.211 347.295 393.135 346.107 C 398.444 345.326 403.741 329.844 399.699 304.793 C 395.385 277.977 380.105 235.638 360.499 214.17 C 344.221 196.329 333.951 180.685 327.484 158.355 C 322.067 139.599 319.049 121.326 320.167 103.875 C 321.609 81.251 309.467 49.772 290.117 34.976 C 278.03 25.691 259.028 20.732 241.848 20.921 C 232.199 21.028 223.131 22.485 216.164 26.392 C 187.475 42.481 183.472 65.443 183.904 91.666 C 184.308 116.286 185.118 144.395 187.825 171.117 C 184.619 183.393 167.923 206.665 157.235 220.828 C 142.844 235.489 135.582 263.826 126.284 288.594 C 121.325 301.8 112.97 307.757 112.269 324.723 C 112.067 329.48 112.229 341.754 116.621 338.238 C 133.426 324.817 154.476 358.666 186.262 410.33 Z M 273.543 55.392 C 272.64 58.193 268.906 60.512 271.264 62.48 C 273.637 64.434 274.998 59.744 279.755 57.978 C 280.995 57.521 286.72 58.166 287.772 55.365 C 288.243 54.137 284.821 52.737 282.787 50.728 C 280.764 48.72 278.757 46.942 276.857 47.063 C 271.912 47.387 274.338 52.911 273.543 55.392 Z M 302.757 157.494 C 304.535 155.566 305.452 160.821 310.222 163.934 C 314.008 166.4 317.688 164.567 318.644 169.567 C 319.318 173.151 317.162 177.032 314.251 176.521 C 309.197 175.644 297.516 163.18 302.757 157.494 Z M 223.899 125.989 C 216.029 125.381 215.49 131.244 218.092 131.15 C 220.746 131.055 219.115 126.514 223.885 125.989 Z M 210.384 110.99 C 211.326 110.776 212.634 112.418 212.229 114.709 C 211.663 117.891 211.907 119.885 214.035 119.896 C 214.399 119.896 214.777 119.829 214.91 118.993 C 215.936 112.661 212.742 107.998 211.434 107.661 C 208.429 106.866 208.794 111.341 210.384 110.99 Z M 267.639 108.309 C 269.633 108.928 271.548 112.486 271.966 116.339 C 272.02 116.703 274.579 115.788 274.593 114.938 C 274.769 108.74 269.633 105.828 268.288 105.951 C 265.202 106.247 266.076 107.837 267.639 108.309 Z M 238.29 126.742 C 245.432 123.32 247.939 128.631 245.473 129.478 C 242.953 130.355 242.939 125.489 238.29 126.742 Z M 151.915 252.561 C 148.545 252.13 152.897 249.516 154.742 246.214 C 156.778 242.578 156.388 238.049 158.517 238.724 C 160.673 239.396 159.473 241.93 158.004 246.094 C 156.765 249.637 153.153 252.71 151.915 252.561 Z" style="fill: rgb(41, 48, 50);"/>
</svg>